{"title":"Locked.Up.Abroad.S07E05.The.Real.Argo.HDTV.XviD.P2P4FREE","uid":8456620,"size":373359428,"categoryP":"video","categoryS":"tv_shows","magnet":"?xt=urn:btih:4c12c3a20a954a533c5f5ed04c2392cc63895abd&amp;dn=Locked.Up.Abroad.S07E05.The.Real.Argo.HDTV.XviD.P2P4FREE&amp;tr=udp%3A%2F%2Ftracker.openbittorrent.com%3A80&amp;tr=udp%3A%2F%2Fopen.demonii.com%3A1337&amp;tr=udp%3A%2F%2Ftracker.coppersurfer.tk%3A6969&amp;tr=udp%3A%2F%2Fexodus.desync.com%3A6969","seeders":0,"leechers":2,"uploader":"P2P4FREE","files":1,"time":1368121710,"description":"---------------------------------------------------------------\nVideo\n---------------------------------------------------------------\nID                                       : 0\nFormat                                   : MPEG-4 Visual\nFormat profile                           : Advanced Simple@L5\nFormat settings, BVOP                    : 2\nFormat settings, QPel                    : No\nFormat settings, GMC                     : No warppoints\nFormat settings, Matrix                  : Default (H.263)\nMuxing mode                              : Packed bitstream\nCodec ID                                 : XVID\nCodec ID/Hint                            : XviD\nDuration                                 : 44mn 19s\nBit rate                                 : 981 Kbps\nWidth                                    : 704 pixels\nHeight                                   : 384 pixels\nDisplay aspect ratio                     : 16:9\nFrame rate                               : 29.970 fps\nColor space                              : YUV\nChroma subsampling                       : 4:2:0\nBit depth                                : 8 bits\nScan type                                : Progressive\nCompression mode                         : Lossy\nBits/(Pixel*Frame)                       : 0.121\nStream size                              : 311 MiB (87%)\nWriting library                          : XviD 64\n--------------------------------------------------------------\nAudio\n--------------------------------------------------------------\nID                                       : 1\nFormat                                   : MPEG Audio\nFormat version                           : Version 1\nFormat profile                           : Layer 3\nMode                                     : Joint stereo\nMode extension                           : MS Stereo\nCodec ID                                 : 55\nCodec ID/Hint                            : MP3\nDuration                                 : 44mn 19s\nBit rate mode                            : Constant\nBit rate                                 : 128 Kbps\nChannel(s)                               : 2 channels\nSampling rate                            : 48.0 KHz\nCompression mode                         : Lossy\nStream size                              : 40.6 MiB (11%)\nAlignment                                : Aligned on interleaves\nInterleave, duration                     : 24 ms (0.72 video frame)\n--------------------------------------------------------------\n\nEncoded at lower bitrate, smaller size and avi container.\n\n\nEnjoy and Seed! ;) P2P4FREE","torrent":{"xt":"urn:btih:4c12c3a20a954a533c5f5ed04c2392cc63895abd","amp;dn":"Locked.Up.Abroad.S07E05.The.Real.Argo.HDTV.XviD.P2P4FREE","amp;tr":["udp%3A%2F%2Ftracker.openbittorrent.com%3A80","udp%3A%2F%2Fopen.demonii.com%3A1337","udp%3A%2F%2Ftracker.coppersurfer.tk%3A6969","udp%3A%2F%2Fexodus.desync.com%3A6969"],"infoHash":"4c12c3a20a954a533c5f5ed04c2392cc63895abd","infoHashBuffer":{"type":"Buffer","data":[76,18,195,162,10,149,74,83,60,95,94,208,76,35,146,204,99,137,90,189]},"announce":[],"urlList":[]}}